# Blender v2.93.1 OBJ File: ''
# www.blender.org
mtllib Carrot2.mtl
o 2.Merged_Plane-tex.001
v -0.049994 -0.639085 0.049994
v -0.049994 -0.739073 -0.049994
v -0.049994 -0.739073 0.049994
v -0.049994 -0.639085 -0.049994
v -0.049994 -0.939049 -0.149982
v -0.049994 -0.939049 -0.049994
v -0.049994 -0.739073 -0.149982
v -0.049994 -0.739073 0.149982
v -0.049994 -0.939049 0.049994
v -0.049994 -0.939049 0.149982
v -0.149982 -0.739073 0.049994
v -0.149982 -0.939049 -0.049994
v -0.149982 -0.939049 0.049994
v -0.149982 -1.039037 -0.149982
v -0.149982 -0.739073 -0.049994
v -0.149982 -0.939049 -0.149982
v -0.149982 -1.039037 0.149982
v -0.149982 -0.939049 0.149982
v 0.149982 -0.739073 0.049994
v 0.149982 -0.939049 -0.049994
v 0.149982 -0.939049 0.049994
v 0.149982 -1.039037 -0.149982
v 0.149982 -0.739073 -0.049994
v 0.149982 -0.939049 -0.149982
v 0.149982 -1.039037 0.149982
v 0.149982 -0.939049 0.149982
v 0.049994 -0.639085 0.049994
v 0.049994 -0.739073 -0.049994
v 0.049994 -0.739073 0.049994
v 0.049994 -0.639085 -0.049994
v 0.049994 -0.939049 -0.149982
v 0.049994 -0.939049 -0.049994
v 0.049994 -0.739073 -0.149982
v 0.049994 -0.739073 0.149982
v 0.049994 -0.939049 0.049994
v 0.049994 -0.939049 0.149982
vt 0.666785 0.666431
vt 0.833098 0.666431
vt 0.666785 0.333805
vt 0.833098 0.666431
vt 0.666785 0.333805
vt 0.333611 0.333518
vt 0.666528 0.666297
vt 0.666528 0.333518
vt 0.333472 0.333703
vt 0.333472 0.666482
vt 0.666389 0.666482
vt 0.333611 0.333518
vt 0.666528 0.666297
vt 0.666528 0.333518
vt 0.333472 0.333703
vt 0.333472 0.666482
vt 0.666389 0.666482
vt 0.333611 0.333518
vt 0.666528 0.666297
vt 0.666528 0.333518
vt 0.666785 0.666431
vt 0.833098 0.666431
vt 0.666785 0.333805
vt 0.333472 0.333703
vt 0.333472 0.666482
vt 0.666389 0.666482
vt 0.666785 0.666431
vt 0.833098 0.666431
vt 0.666785 0.666431
vt 0.833098 0.666431
vt 0.833098 0.666431
vt 0.666785 0.333805
vt 0.666528 0.666297
vt 0.333611 0.333518
vt 0.666528 0.333518
vt 0.833098 0.666431
vt 0.666785 0.666431
vt 0.666785 0.333805
vt 0.333472 0.666482
vt 0.333472 0.333703
vt 0.666389 0.666482
vt 0.833098 0.666431
vt 0.666785 0.666431
vt 0.833098 0.666431
vt 0.666785 0.666431
vt 0.833098 0.666431
vt 0.666785 0.333805
vt 0.833098 0.666431
vt 0.666785 0.666431
vt 0.666785 0.333805
vt 0.833098 0.666431
vt 0.666785 0.333805
vt 0.666528 0.666297
vt 0.333611 0.333518
vt 0.666528 0.333518
vt 0.333472 0.666482
vt 0.333472 0.333703
vt 0.666389 0.666482
vt 0.666528 0.666297
vt 0.333611 0.333518
vt 0.666528 0.333518
vt 0.333472 0.666482
vt 0.333472 0.333703
vt 0.666389 0.666482
vt 0.833098 0.666431
vt 0.666785 0.333805
vt 0.833098 0.666431
vt 0.666785 0.666431
vt 0.833098 0.666431
vt 0.666785 0.333805
vt 0.666785 0.333805
vt 0.833098 0.666431
vt 0.666785 0.333805
vt 0.666785 0.333805
vt 0.666785 0.666431
vt 0.666785 0.333805
vt 0.833098 0.666431
vt 0.666785 0.333805
vt 0.666785 0.666431
vt 0.666785 0.333805
vt 0.833098 0.666431
vt 0.166785 0.666431
vt 0.333098 0.666431
vt 0.166785 0.333805
vt 0.333098 0.666431
vt 0.166785 0.333805
vt 0.166785 0.666431
vt 0.333098 0.666431
vt 0.166785 0.333805
vt 0.333098 0.666431
vt 0.166785 0.333805
vt 0.166785 0.666431
vt 0.333098 0.666431
vt 0.166785 0.333805
vt 0.333098 0.666431
vt 0.166785 0.333805
vt 0.166785 0.666431
vt 0.333098 0.666431
vt 0.166785 0.333805
vt 0.333098 0.666431
vt 0.166785 0.333805
vt 0.666785 0.333805
vt 0.666785 0.333805
vt 0.833098 0.666431
vt 0.666785 0.666431
vt 0.833098 0.666431
vt 0.666528 0.666297
vt 0.666389 0.666482
vt 0.333472 0.666482
vt 0.666528 0.666297
vt 0.333611 0.333518
vt 0.666528 0.333518
vt 0.666389 0.666482
vt 0.333472 0.666482
vt 0.333472 0.333703
vt 0.666785 0.666431
vt 0.833098 0.666431
vt 0.833098 0.666431
vt 0.666785 0.666431
vt 0.333611 0.333518
vt 0.666528 0.666297
vt 0.666528 0.333518
vt 0.333472 0.666482
vt 0.666389 0.666482
vt 0.333472 0.333703
vt 0.666785 0.666431
vt 0.666785 0.666431
vt 0.666785 0.666431
vt 0.333611 0.333518
vt 0.666528 0.333518
vt 0.333472 0.333703
vn -1.0000 0.0000 0.0000
vn 1.0000 0.0000 0.0000
vn 0.0000 -1.0000 0.0000
vn 0.0000 1.0000 0.0000
vn 0.0000 0.0000 1.0000
vn 0.0000 0.0000 -1.0000
usemtl lambert0.001
s off
f 1/1/1 2/2/1 3/3/1
f 1/1/1 4/4/1 2/5/1
f 2/6/1 5/7/1 6/8/1
f 2/9/1 7/10/1 5/11/1
f 8/12/1 9/13/1 10/14/1
f 8/15/1 3/16/1 9/17/1
f 11/18/1 12/19/1 13/20/1
f 13/21/1 12/22/1 14/23/1
f 11/24/1 15/25/1 12/26/1
f 12/27/1 16/28/1 14/23/1
f 17/29/1 13/30/1 14/23/1
f 17/29/1 18/31/1 13/32/1
f 20/33/2 19/34/2 21/35/2
f 20/36/2 21/37/2 22/38/2
f 23/39/2 19/40/2 20/41/2
f 24/42/2 20/43/2 22/38/2
f 21/44/2 25/45/2 22/38/2
f 26/46/2 25/45/2 21/47/2
f 28/48/2 27/49/2 29/50/2
f 30/51/2 27/49/2 28/52/2
f 31/53/2 28/54/2 32/55/2
f 33/56/2 28/57/2 31/58/2
f 35/59/2 34/60/2 36/61/2
f 29/62/2 34/63/2 35/64/2
f 14/65/3 25/45/3 17/66/3
f 22/67/3 25/45/3 14/23/3
f 26/68/4 35/69/4 36/70/4
f 26/68/4 21/44/4 35/71/4
f 20/43/4 31/72/4 32/73/4
f 20/43/4 24/42/4 31/74/4
f 6/75/4 16/28/4 12/76/4
f 6/75/4 5/77/4 16/78/4
f 10/79/4 13/30/4 18/80/4
f 10/79/4 9/81/4 13/32/4
f 19/82/4 28/83/4 29/84/4
f 19/82/4 23/85/4 28/86/4
f 28/87/4 7/88/4 2/89/4
f 28/87/4 33/90/4 7/91/4
f 34/92/4 3/93/4 8/94/4
f 34/92/4 29/95/4 3/96/4
f 3/97/4 15/98/4 11/99/4
f 3/97/4 2/100/4 15/101/4
f 27/49/4 4/4/4 1/102/4
f 27/49/4 30/51/4 4/103/4
f 25/45/5 36/104/5 17/66/5
f 36/105/5 10/106/5 17/66/5
f 25/45/5 26/46/5 36/70/5
f 10/79/5 18/31/5 17/66/5
f 36/107/5 8/12/5 10/14/5
f 36/108/5 34/109/5 8/15/5
f 21/110/5 29/111/5 35/112/5
f 21/113/5 19/114/5 29/115/5
f 29/116/5 1/117/5 3/3/5
f 29/116/5 27/118/5 1/102/5
f 9/13/5 11/18/5 13/20/5
f 9/17/5 3/16/5 11/24/5
f 28/54/6 20/33/6 32/55/6
f 23/39/6 20/41/6 28/57/6
f 4/4/6 28/119/6 2/5/6
f 30/51/6 28/119/6 4/103/6
f 15/120/6 6/121/6 12/122/6
f 2/123/6 6/124/6 15/125/6
f 31/72/6 22/126/6 14/23/6
f 5/77/6 31/127/6 14/23/6
f 24/42/6 22/126/6 31/74/6
f 16/28/6 5/128/6 14/23/6
f 7/129/6 31/53/6 5/130/6
f 33/56/6 31/58/6 7/131/6
