# Blender v2.93.1 OBJ File: ''
# www.blender.org
mtllib Carrot1.mtl
o 1.Merged_Plane-tex
v -0.036226 -0.748196 0.036339
v -0.036226 -0.966227 -0.036338
v -0.036226 -0.966227 0.036339
v -0.036226 -0.748196 -0.036338
v -0.036226 -1.038904 -0.109015
v -0.036226 -1.038904 -0.036338
v -0.036226 -0.966227 -0.109015
v -0.036226 -0.966227 0.109016
v -0.036226 -1.038904 0.036339
v -0.036226 -1.038904 0.109016
v -0.108903 -0.966227 0.036339
v -0.108903 -1.038904 -0.036338
v -0.108903 -1.038904 0.036339
v -0.108903 -0.966227 -0.036338
v 0.036451 -0.748196 0.036339
v 0.036451 -0.966227 -0.036338
v 0.036451 -0.966227 0.036339
v 0.036451 -0.748196 -0.036338
v 0.036451 -1.038904 -0.109015
v 0.036451 -1.038904 -0.036338
v 0.036451 -0.966227 -0.109015
v 0.036451 -0.966227 0.109016
v 0.036451 -1.038904 0.036339
v 0.036451 -1.038904 0.109016
v 0.109128 -0.966227 0.036339
v 0.109128 -1.038904 -0.036338
v 0.109128 -1.038904 0.036339
v 0.109128 -0.966227 -0.036338
vt 0.166785 0.666431
vt 0.333098 0.666431
vt 0.166785 0.333805
vt 0.333098 0.666431
vt 0.166785 0.333805
vt 0.166785 0.666431
vt 0.333098 0.666431
vt 0.166785 0.333805
vt 0.333098 0.666431
vt 0.166785 0.333805
vt 0.166785 0.666431
vt 0.333098 0.666431
vt 0.166785 0.333805
vt 0.333098 0.666431
vt 0.166785 0.333805
vt 0.166785 0.666431
vt 0.333098 0.666431
vt 0.166785 0.333805
vt 0.333098 0.666431
vt 0.166785 0.333805
vt 0.333098 0.666431
vt 0.166785 0.666431
vt 0.166785 0.333805
vt 0.333098 0.666431
vt 0.166785 0.333805
vt 0.333098 0.666431
vt 0.166785 0.666431
vt 0.166785 0.333805
vt 0.333098 0.666431
vt 0.166785 0.333805
vt 0.333098 0.666431
vt 0.166785 0.666431
vt 0.166785 0.333805
vt 0.333098 0.666431
vt 0.166785 0.333805
vt 0.333098 0.666431
vt 0.166785 0.666431
vt 0.166785 0.333805
vt 0.333098 0.666431
vt 0.166785 0.333805
vt 0.333098 0.666431
vt 0.166785 0.666431
vt 0.833098 0.666431
vt 0.666785 0.666431
vt 0.666785 0.333805
vt 0.166785 0.666431
vt 0.833098 0.666431
vt 0.666785 0.333805
vt 0.333098 0.666431
vt 0.166785 0.666431
vt 0.166785 0.666431
vt 0.166785 0.333805
vt 0.166785 0.333805
vt 0.166785 0.666431
vt 0.166785 0.333805
vt 0.166785 0.333805
vt 0.166785 0.333805
vt 0.166785 0.333805
vt 0.333098 0.666431
vt 0.166785 0.666431
vt 0.333098 0.666431
vt 0.333098 0.666431
vt 0.333098 0.666431
vt 0.333098 0.666431
vt 0.333098 0.666431
vt 0.166785 0.666431
vt 0.166785 0.666431
vt 0.166785 0.666431
vn -1.0000 0.0000 0.0000
vn 1.0000 0.0000 0.0000
vn 0.0000 -1.0000 0.0000
vn 0.0000 1.0000 0.0000
vn 0.0000 0.0000 1.0000
vn 0.0000 0.0000 -1.0000
usemtl lambert0
s off
f 1/1/1 2/2/1 3/3/1
f 1/1/1 4/4/1 2/5/1
f 2/6/1 5/7/1 6/8/1
f 2/6/1 7/9/1 5/10/1
f 8/11/1 9/12/1 10/13/1
f 8/11/1 3/14/1 9/15/1
f 11/16/1 12/17/1 13/18/1
f 11/16/1 14/19/1 12/20/1
f 16/21/2 15/22/2 17/23/2
f 18/24/2 15/22/2 16/25/2
f 19/26/2 16/27/2 20/28/2
f 21/29/2 16/27/2 19/30/2
f 23/31/2 22/32/2 24/33/2
f 17/34/2 22/32/2 23/35/2
f 26/36/2 25/37/2 27/38/2
f 28/39/2 25/37/2 26/40/2
f 20/41/3 27/42/3 23/35/3
f 20/43/3 23/44/3 6/45/3
f 26/36/3 27/42/3 20/28/3
f 5/7/3 20/46/3 6/8/3
f 6/47/3 23/44/3 9/48/3
f 19/26/3 20/46/3 5/10/3
f 6/49/3 9/50/3 12/20/3
f 23/31/3 24/51/3 9/15/3
f 12/17/3 9/50/3 13/18/3
f 9/12/3 24/51/3 10/13/3
f 25/37/4 16/21/4 17/23/4
f 25/37/4 28/39/4 16/25/4
f 16/27/4 7/9/4 2/5/4
f 16/27/4 21/29/4 7/52/4
f 22/32/4 3/14/4 8/53/4
f 22/32/4 17/34/4 3/3/4
f 3/54/4 14/19/4 11/55/4
f 3/54/4 2/2/4 14/56/4
f 15/22/4 4/4/4 1/57/4
f 15/22/4 18/24/4 4/58/4
f 27/42/5 17/34/5 23/35/5
f 27/42/5 25/59/5 17/23/5
f 17/60/5 1/61/5 3/3/5
f 17/60/5 15/62/5 1/57/5
f 9/50/5 11/63/5 13/18/5
f 9/50/5 3/14/5 11/55/5
f 24/51/5 8/64/5 10/13/5
f 24/51/5 22/65/5 8/53/5
f 16/21/6 26/66/6 20/28/6
f 28/39/6 26/66/6 16/25/6
f 4/4/6 16/27/6 2/5/6
f 18/24/6 16/27/6 4/58/6
f 14/19/6 6/67/6 12/20/6
f 2/2/6 6/67/6 14/56/6
f 7/9/6 19/68/6 5/10/6
f 21/29/6 19/68/6 7/52/6
