# Blender v2.93.1 OBJ File: ''
# www.blender.org
mtllib Carrot2.5.mtl
o 4.Merged_Plane-tex
v -0.087895 -0.471871 0.263684
v -0.087895 -0.669622 0.087895
v -0.087895 -0.669622 0.263684
v -0.087895 -0.471871 0.087895
v -0.087895 -0.471871 -0.087895
v -0.087895 -0.669622 -0.263684
v -0.087895 -0.669622 -0.087895
v -0.087895 -0.471871 -0.263684
v -0.087895 -0.867374 -0.263684
v -0.087895 -1.065126 -0.439474
v -0.087895 -1.065126 -0.263684
v -0.087895 -0.867374 -0.439474
v -0.087895 -0.867374 0.439474
v -0.087895 -1.065126 0.263684
v -0.087895 -1.065126 0.439474
v -0.087895 -0.867374 0.263684
v -0.263684 -0.471871 0.087895
v -0.263684 -0.669622 -0.087895
v -0.263684 -0.669622 0.087895
v -0.263684 -0.867374 -0.087895
v -0.263684 -0.471871 -0.087895
v -0.263684 -0.669622 -0.263684
v -0.263684 -0.867374 0.087895
v -0.263684 -1.065126 -0.263684
v -0.263684 -0.669622 0.263684
v -0.263684 -1.065126 -0.087895
v -0.263684 -1.065126 0.263684
v -0.263684 -1.065126 0.087895
v -0.439474 -0.867374 0.087895
v -0.439474 -1.065126 -0.087895
v -0.439474 -1.065126 0.087895
v -0.439474 -0.867374 -0.087895
v 0.087895 -0.471871 0.263684
v 0.087895 -0.669622 0.087895
v 0.087895 -0.669622 0.263684
v 0.087895 -0.471871 0.087895
v 0.087895 -0.471871 -0.087895
v 0.087895 -0.669622 -0.263684
v 0.087895 -0.669622 -0.087895
v 0.087895 -0.471871 -0.263684
v 0.087895 -0.867374 -0.263684
v 0.087895 -1.065126 -0.439474
v 0.087895 -1.065126 -0.263684
v 0.087895 -0.867374 -0.439474
v 0.087895 -0.867374 0.439474
v 0.087895 -1.065126 0.263684
v 0.087895 -1.065126 0.439474
v 0.087895 -0.867374 0.263684
v 0.263684 -0.471871 0.087895
v 0.263684 -0.669622 -0.087895
v 0.263684 -0.669622 0.087895
v 0.263684 -0.867374 -0.087895
v 0.263684 -0.471871 -0.087895
v 0.263684 -0.669622 -0.263684
v 0.263684 -0.867374 0.087895
v 0.263684 -1.065126 -0.263684
v 0.263684 -0.669622 0.263684
v 0.263684 -1.065126 -0.087895
v 0.263684 -1.065126 0.263684
v 0.263684 -1.065126 0.087895
v 0.439474 -0.867374 0.087895
v 0.439474 -1.065126 -0.087895
v 0.439474 -1.065126 0.087895
v 0.439474 -0.867374 -0.087895
vt 0.166785 0.666431
vt 0.333098 0.666431
vt 0.166785 0.333805
vt 0.333098 0.666431
vt 0.166785 0.333805
vt 0.166785 0.666431
vt 0.333098 0.666431
vt 0.166785 0.333805
vt 0.333098 0.666431
vt 0.166785 0.333805
vt 0.166785 0.666431
vt 0.333098 0.666431
vt 0.166785 0.333805
vt 0.333098 0.666431
vt 0.166785 0.333805
vt 0.166785 0.666431
vt 0.333098 0.666431
vt 0.166785 0.333805
vt 0.333098 0.666431
vt 0.166785 0.333805
vt 0.166785 0.666431
vt 0.333098 0.666431
vt 0.166785 0.333805
vt 0.166785 0.666431
vt 0.166785 0.333805
vt 0.333098 0.666431
vt 0.166785 0.333805
vt 0.166785 0.666431
vt 0.166785 0.333805
vt 0.333098 0.666431
vt 0.166785 0.333805
vt 0.166785 0.666431
vt 0.166785 0.666431
vt 0.333098 0.666431
vt 0.333098 0.666431
vt 0.166785 0.333805
vt 0.333098 0.666431
vt 0.166785 0.333805
vt 0.166785 0.666431
vt 0.333098 0.666431
vt 0.166785 0.666431
vt 0.333098 0.666431
vt 0.166785 0.333805
vt 0.333098 0.666431
vt 0.166785 0.333805
vt 0.333098 0.666431
vt 0.166785 0.666431
vt 0.166785 0.333805
vt 0.333098 0.666431
vt 0.166785 0.333805
vt 0.333098 0.666431
vt 0.166785 0.666431
vt 0.166785 0.333805
vt 0.333098 0.666431
vt 0.166785 0.333805
vt 0.333098 0.666431
vt 0.166785 0.666431
vt 0.166785 0.333805
vt 0.333098 0.666431
vt 0.166785 0.333805
vt 0.333098 0.666431
vt 0.166785 0.666431
vt 0.166785 0.333805
vt 0.333098 0.666431
vt 0.166785 0.333805
vt 0.333098 0.666431
vt 0.166785 0.666431
vt 0.166785 0.333805
vt 0.166785 0.666431
vt 0.166785 0.333805
vt 0.333098 0.666431
vt 0.166785 0.333805
vt 0.166785 0.666431
vt 0.166785 0.333805
vt 0.333098 0.666431
vt 0.166785 0.333805
vt 0.166785 0.666431
vt 0.333098 0.666431
vt 0.166785 0.666431
vt 0.333098 0.666431
vt 0.166785 0.333805
vt 0.333098 0.666431
vt 0.166785 0.333805
vt 0.333098 0.666431
vt 0.166785 0.666431
vt 0.333098 0.666431
vt 0.166785 0.666431
vt 0.166785 0.333805
vt 0.333098 0.666431
vt 0.166785 0.333805
vt 0.333098 0.666431
vt 0.166785 0.666431
vt 0.166785 0.333805
vt 0.166785 0.666431
vt 0.166785 0.666431
vt 0.166785 0.666431
vt 0.333098 0.666431
vt 0.166785 0.666431
vt 0.166785 0.333805
vt 0.333098 0.666431
vt 0.166785 0.666431
vt 0.166785 0.666431
vt 0.166785 0.666431
vt 0.166785 0.666431
vt 0.333098 0.666431
vt 0.166785 0.666431
vt 0.333098 0.666431
vt 0.166785 0.666431
vt 0.166785 0.333805
vt 0.166785 0.333805
vt 0.166785 0.333805
vt 0.166785 0.333805
vt 0.166785 0.333805
vt 0.166785 0.333805
vt 0.166785 0.333805
vt 0.333098 0.666431
vt 0.166785 0.333805
vt 0.666785 0.666431
vt 0.833098 0.666431
vt 0.666785 0.333805
vt 0.166785 0.333805
vt 0.166785 0.333805
vt 0.833098 0.666431
vt 0.666785 0.333805
vt 0.166785 0.333805
vt 0.166785 0.666431
vt 0.333098 0.666431
vt 0.166785 0.333805
vt 0.166785 0.333805
vt 0.166785 0.333805
vt 0.166785 0.333805
vt 0.333098 0.666431
vt 0.333098 0.666431
vt 0.166785 0.666431
vt 0.333098 0.666431
vt 0.333098 0.666431
vt 0.166785 0.666431
vt 0.333098 0.666431
vt 0.166785 0.333805
vt 0.333098 0.666431
vt 0.166785 0.666431
vt 0.166785 0.666431
vt 0.333098 0.666431
vt 0.333098 0.666431
vt 0.333098 0.666431
vt 0.166785 0.666431
vt 0.166785 0.666431
vt 0.333098 0.666431
vt 0.333098 0.666431
vt 0.166785 0.666431
vt 0.166785 0.666431
vt 0.333098 0.666431
vt 0.166785 0.333805
vt 0.166785 0.666431
vt 0.166785 0.666431
vt 0.333098 0.666431
vt 0.166785 0.666431
vn -1.0000 0.0000 0.0000
vn 1.0000 0.0000 0.0000
vn 0.0000 -1.0000 0.0000
vn 0.0000 1.0000 0.0000
vn 0.0000 0.0000 1.0000
vn 0.0000 0.0000 -1.0000
usemtl lambert0
s off
f 1/1/1 2/2/1 3/3/1
f 1/1/1 4/4/1 2/5/1
f 5/6/1 6/7/1 7/8/1
f 5/6/1 8/9/1 6/10/1
f 9/11/1 10/12/1 11/13/1
f 9/11/1 12/14/1 10/15/1
f 13/16/1 14/17/1 15/18/1
f 13/16/1 16/19/1 14/20/1
f 17/21/1 18/22/1 19/23/1
f 19/24/1 18/22/1 20/25/1
f 17/21/1 21/26/1 18/27/1
f 20/28/1 18/22/1 22/29/1
f 19/24/1 20/30/1 23/31/1
f 24/32/1 20/30/1 22/29/1
f 25/33/1 19/34/1 23/31/1
f 20/28/1 24/35/1 26/36/1
f 25/33/1 23/37/1 27/38/1
f 23/39/1 28/40/1 27/38/1
f 29/41/1 30/42/1 31/43/1
f 29/41/1 32/44/1 30/45/1
f 34/46/2 33/47/2 35/48/2
f 36/49/2 33/47/2 34/50/2
f 38/51/2 37/52/2 39/53/2
f 40/54/2 37/52/2 38/55/2
f 42/56/2 41/57/2 43/58/2
f 44/59/2 41/57/2 42/60/2
f 46/61/2 45/62/2 47/63/2
f 48/64/2 45/62/2 46/65/2
f 50/66/2 49/67/2 51/68/2
f 50/66/2 51/69/2 52/70/2
f 53/71/2 49/67/2 50/72/2
f 50/66/2 52/73/2 54/74/2
f 52/75/2 51/69/2 55/76/2
f 52/75/2 56/77/2 54/74/2
f 51/78/2 57/79/2 55/76/2
f 56/80/2 52/73/2 58/81/2
f 55/82/2 57/79/2 59/83/2
f 60/84/2 55/85/2 59/83/2
f 62/86/2 61/87/2 63/88/2
f 64/89/2 61/87/2 62/90/2
f 58/91/3 63/92/3 60/93/3
f 58/91/3 60/94/3 43/58/3
f 62/86/3 63/92/3 58/81/3
f 56/80/3 58/95/3 43/58/3
f 60/84/3 28/96/3 43/58/3
f 11/97/3 43/98/3 28/99/3
f 46/61/3 28/96/3 60/93/3
f 26/100/3 11/101/3 28/99/3
f 10/12/3 43/98/3 11/13/3
f 46/61/3 60/94/3 59/83/3
f 46/61/3 14/102/3 28/99/3
f 26/100/3 28/96/3 30/45/3
f 24/35/3 11/101/3 26/36/3
f 42/56/3 43/98/3 10/15/3
f 28/40/3 14/102/3 27/38/3
f 46/61/3 47/103/3 14/20/3
f 30/42/3 28/96/3 31/43/3
f 14/17/3 47/103/3 15/18/3
f 57/79/4 34/46/4 35/48/4
f 57/79/4 51/78/4 34/50/4
f 50/104/4 38/51/4 39/53/4
f 50/104/4 54/105/4 38/55/4
f 7/106/4 22/107/4 18/27/4
f 7/106/4 6/7/4 22/29/4
f 3/108/4 19/34/4 25/109/4
f 3/108/4 2/2/4 19/23/4
f 61/87/4 52/75/4 55/76/4
f 61/87/4 64/89/4 52/70/4
f 41/57/4 12/14/4 9/110/4
f 41/57/4 44/59/4 12/111/4
f 45/62/4 16/19/4 13/112/4
f 45/62/4 48/64/4 16/113/4
f 23/39/4 32/44/4 29/114/4
f 23/39/4 20/30/4 32/115/4
f 49/67/4 37/116/4 36/117/4
f 36/118/4 37/119/4 5/120/4
f 49/67/4 53/71/4 37/121/4
f 37/52/4 8/9/4 5/122/4
f 36/118/4 5/123/4 4/124/4
f 37/52/4 40/54/4 8/125/4
f 4/126/4 5/127/4 21/128/4
f 33/47/4 36/49/4 4/129/4
f 4/126/4 21/26/4 17/130/4
f 33/47/4 4/4/4 1/131/4
f 63/92/5 55/82/5 60/93/5
f 63/92/5 61/132/5 55/76/5
f 51/69/5 36/49/5 34/50/5
f 51/69/5 49/133/5 36/117/5
f 2/134/5 17/135/5 19/23/5
f 2/134/5 4/4/5 17/130/5
f 28/96/5 29/136/5 31/43/5
f 28/96/5 23/37/5 29/114/5
f 59/137/5 48/64/5 46/65/5
f 59/137/5 57/138/5 48/139/5
f 57/79/5 35/140/5 48/139/5
f 48/141/5 35/140/5 3/3/5
f 35/142/5 1/143/5 3/3/5
f 48/141/5 3/144/5 16/113/5
f 35/142/5 33/145/5 1/131/5
f 16/146/5 3/144/5 25/109/5
f 27/147/5 16/19/5 25/109/5
f 27/147/5 14/17/5 16/113/5
f 47/103/5 13/148/5 15/18/5
f 47/103/5 45/149/5 13/112/5
f 52/75/6 62/150/6 58/81/6
f 64/89/6 62/150/6 52/70/6
f 37/116/6 50/104/6 39/53/6
f 53/71/6 50/104/6 37/121/6
f 21/26/6 7/106/6 18/27/6
f 5/127/6 7/106/6 21/128/6
f 32/44/6 26/151/6 30/45/6
f 20/30/6 26/151/6 32/115/6
f 41/152/6 56/77/6 43/58/6
f 54/105/6 56/77/6 41/153/6
f 38/51/6 54/154/6 41/153/6
f 38/51/6 41/57/6 6/10/6
f 8/9/6 38/155/6 6/10/6
f 6/7/6 41/57/6 9/110/6
f 40/54/6 38/155/6 8/125/6
f 6/7/6 9/11/6 22/29/6
f 9/156/6 24/32/6 22/29/6
f 11/97/6 24/32/6 9/110/6
f 12/14/6 42/157/6 10/15/6
f 44/59/6 42/157/6 12/111/6
