# Blender v2.93.1 OBJ File: ''
# www.blender.org
mtllib leaves.mtl
o Cube.001_Cube.009
v -0.000000 -1.498300 1.498300
v -0.000000 1.498300 1.498300
v -0.000000 -1.498300 -1.498300
v -0.000000 1.498300 -1.498300
v -0.000000 -1.498300 -1.498300
v -0.000000 1.498300 -1.498300
v -0.000000 -1.498300 1.498301
v -0.000000 1.498300 1.498301
v -1.000000 -1.000000 1.000000
v -1.000000 1.000000 1.000000
v -1.000000 -1.000000 -1.000000
v -1.000000 1.000000 -1.000000
v 1.000000 -1.000000 1.000000
v 1.000000 1.000000 1.000000
v 1.000000 -1.000000 -1.000000
v 1.000000 1.000000 -1.000000
v -1.000000 -1.000000 1.000000
v -1.000000 1.000000 1.000000
v 1.000000 -1.000000 1.000000
v 1.000000 1.000000 1.000000
v -1.498300 -1.498300 0.000000
v -1.498300 1.498300 0.000000
v 1.498300 -1.498300 0.000000
v 1.498300 1.498300 0.000000
v 1.498300 -1.498300 0.000000
v 1.498300 1.498300 0.000000
v -1.498301 -1.498300 -0.000000
v -1.498301 1.498300 -0.000000
vt 0.000000 1.000000
vt 0.000000 0.000000
vt 1.000000 0.000000
vt 1.000000 1.000000
vt 0.000000 1.000000
vt 0.000000 0.000000
vt 1.000000 0.000000
vt 1.000000 1.000000
vt 1.000000 0.000000
vt 1.000000 1.000000
vt 0.000000 1.000000
vt 0.000000 0.000000
vt 1.000000 0.000000
vt 1.000000 1.000000
vt 0.000000 1.000000
vt 0.000000 0.000000
vt 0.000000 1.000000
vt 0.000000 0.000000
vt 1.000000 0.000000
vt 1.000000 1.000000
vt 1.000000 0.000000
vt 0.000000 1.000000
vt 1.000000 0.000000
vt 0.000000 1.000000
vt 0.000000 1.000000
vt 0.000000 0.000000
vt 1.000000 0.000000
vt 1.000000 1.000000
vt 0.000000 1.000000
vt 0.000000 0.000000
vt 1.000000 0.000000
vt 1.000000 1.000000
vt 0.000000 1.000000
vt 0.000000 0.000000
vt 1.000000 0.000000
vt 1.000000 1.000000
vn 1.0000 0.0000 0.0000
vn -1.0000 0.0000 0.0000
vn -0.0000 0.0000 -1.0000
vn 0.0000 -1.0000 0.0000
vn 0.0000 1.0000 0.0000
vn 0.0000 0.0000 1.0000
usemtl None
s off
f 3/1/1 4/2/1 2/3/1 1/4/1
f 7/5/2 8/6/2 6/7/2 5/8/2
f 9/9/2 10/10/2 12/11/2 11/12/2
f 11/13/3 12/14/3 16/15/3 15/16/3
f 15/17/1 16/18/1 14/19/1 13/20/1
f 11/12/4 15/21/4 13/20/4 9/22/4
f 16/18/5 12/23/5 10/10/5 14/24/5
f 19/25/6 20/26/6 18/27/6 17/28/6
f 23/29/6 24/30/6 22/31/6 21/32/6
f 27/33/3 28/34/3 26/35/3 25/36/3
